<svg height="512pt" viewBox="0 -2 512.00201 512" width="512pt" xmlns="http://www.w3.org/2000/svg"><path d="m143.796875 7.546875h224.410156v32.058594h-224.410156zm0 0" fill="#c48958"/><path d="m488.425781 256.003906v224.410156h-464.851562v-224.410156h32.058593l40.074219 72.128906h320.585938l40.074219-72.128906zm0 0" fill="#c48958"/><path d="m504.457031 79.679688v176.324218h-48.089843l-40.074219 72.128906h-320.585938l-40.074219-72.128906h-48.085937v-176.324218zm0 0" fill="#f2bb88"/><path d="m167.839844 135.78125h176.324218v48.089844h-176.324218zm0 0" fill="#f2f6fc"/><path d="m480.410156 79.679688h24.042969v176.324218h-24.042969zm0 0" fill="#c48958"/><path d="m143.796875 23.574219h224.410156v16.03125h-224.410156zm0 0" fill="#9e6f46"/><path d="m464.382812 256.003906h24.042969v224.410156h-24.042969zm0 0" fill="#9e6f46"/><path d="m340.394531 421.34375c-26.769531-18.914062-44.320312-50.011719-44.320312-85.195312 0-2.726563.078125-5.371094.320312-8.015626 1.761719-23.804687 11.621094-45.363281 26.769531-62.035156 19.074219-20.996094 46.566407-34.140625 77.101563-34.140625 25.324219 0 48.488281 9.054688 66.519531 24.042969 23.003906 19.074219 37.671875 47.929688 37.671875 80.148438 0 20.597656-6.011719 39.753906-16.351562 55.941406-7.371094 11.460937-16.828125 21.398437-27.96875 29.253906l-45.847657 57.464844-14.023437 17.632812-14.027344-17.632812zm0 0" fill="#ffee6e"/><path d="m466.785156 256.003906c-18.03125-14.988281-41.195312-24.046875-66.519531-24.046875-4.128906 0-8.1875.285157-12.1875.75 20.667969 2.351563 39.492187 10.6875 54.664063 23.296875 23.003906 19.074219 37.667968 47.925782 37.667968 80.144532 0 20.597656-6.007812 39.753906-16.347656 55.945312-7.375 11.457031-16.832031 21.398438-27.972656 29.253906l-45.84375 57.460938-2.003906 2.519531 12.023437 15.113281 14.023437-17.632812 45.847657-57.460938c11.140625-7.855468 20.597656-17.792968 27.96875-29.253906 10.339843-16.191406 16.351562-35.347656 16.351562-55.945312 0-32.21875-14.667969-61.070313-37.671875-80.144532zm0 0" fill="#ffbc36"/><path d="m175.855469 455.898438h-127.765625v-39.601563h15.089844v24.511719h112.675781zm0 0" fill="#fff"/><g fill="#231f20"><path d="m512 72.132812h-147.535156l-14.992188-24.984374h26.277344v-47.148438h-95.707031v15.089844h80.617187v16.96875h-209.320312v-16.96875h104.660156v-15.089844h-119.75v47.148438h26.277344l-14.988282 24.984374h-147.539062v191.414063h16.03125v224.410156h336.144531v-15.089843h-321.054687v-209.320313h20.074218l40.070313 72.132813h172.75v-15.089844h-163.871094l-31.6875-57.042969h211.585938v-15.089844h-264.953125v-161.234375h481.820312v161.234375h-27.492187c-19.652344-15.511719-44.089844-24.042969-69.152344-24.042969-31.414063 0-61.550781 13.34375-82.6875 36.613282-16.679687 18.359375-26.875 41.96875-28.703125 66.488281-.234375 2.621094-.347656 5.367187-.347656 8.632813 0 35.824218 17.414062 69.65625 46.628906 90.726562l45.179688 56.632812 19.929687 25.054688 19.925781-25.046875 45.183594-56.640625c5.59375-4.023438 10.765625-8.535156 15.507812-13.488281v59.480469h-32.527343v15.089843h47.617187v-94.257812c10.488282-17.390625 16.03125-37.21875 16.03125-57.550781 0-26.921876-9.609375-52.53125-26.824218-72.601563h26.824218v-191.414063zm-346.863281 0 14.988281-24.984374h151.75l14.988281 24.984374zm331.773437 264.015626c0 18.40625-5.242187 36.34375-15.160156 51.878906-6.917969 10.746094-15.652344 19.882812-25.964844 27.148437l-.878906.621094-46.519531 58.316406-8.121094 10.207031-54.640625-68.519531-.875-.617187c-25.753906-18.199219-41.132812-47.742188-41.132812-79.035156 0-2.824219.09375-5.15625.292968-7.332032l.007813-.125c1.59375-21.503906 10.179687-41.394531 24.832031-57.519531 18.28125-20.125 44.347656-31.667969 71.515625-31.667969 22.484375 0 44.394531 7.917969 61.707031 22.304688 22.203125 18.414062 34.9375 45.511718 34.9375 74.339844zm0 0"/><path d="m111.734375 280.515625h168.308594v15.089844h-168.308594zm0 0"/><path d="m191.882812 440.808594h16.03125v15.089844h-16.03125zm0 0"/><path d="m351.707031 128.234375h-191.414062v63.179687h191.414062zm-15.089843 48.089844h-161.234376v-33h161.234376zm0 0"/><path d="m407.808594 264.015625h-15.089844v16.5h-24.042969v63.179687h48.085938v32.996094h-32.996094v-16.5h-15.089844v31.589844h24.042969v16.5h15.089844v-16.5h24.046875v-63.179688h-48.089844v-32.996093h32.996094v16.5h15.09375v-31.589844h-24.046875zm0 0"/></g><path d="m462.242188 386.246094-11.746094-9.472656c9.257812-11.480469 14.355468-25.90625 14.355468-40.625h15.089844c0 18.152343-6.285156 35.945312-17.699218 50.097656zm0 0" fill="#fff"/><path d="m335.675781 336.148438h-15.089843c0-19.613282 7.199218-38.476563 20.273437-53.113282l11.253906 10.050782c-10.597656 11.867187-16.4375 27.164062-16.4375 43.0625zm0 0" fill="#fff"/></svg>