<?xml version="1.0" encoding="iso-8859-1"?>
<!-- Generator: Adobe Illustrator 19.0.0, SVG Export Plug-In . SVG Version: 6.00 Build 0)  -->
<svg version="1.1" id="Capa_1" xmlns="http://www.w3.org/2000/svg" xmlns:xlink="http://www.w3.org/1999/xlink" x="0px" y="0px"
	 viewBox="0 0 512 512" style="enable-background:new 0 0 512 512;" xml:space="preserve">
<path style="fill:#CFD8DC;" d="M384,0H192c-2.831-0.005-5.548,1.115-7.552,3.115L77.781,109.781
	c-1.999,2.004-3.12,4.721-3.115,7.552v341.333C74.667,488.122,98.545,512,128,512h256c29.455,0,53.333-23.878,53.333-53.333V53.333
	C437.333,23.878,413.455,0,384,0z"/>
<path style="fill:#FFC107;" d="M170.667,170.667h170.667c17.673,0,32,14.327,32,32V416c0,17.673-14.327,32-32,32H170.667
	c-17.673,0-32-14.327-32-32V202.667C138.667,184.994,152.994,170.667,170.667,170.667z"/>
<g>
	<rect x="138.667" y="298.667" style="fill:#FFA000;" width="234.667" height="21.333"/>
	<path style="fill:#FFA000;" d="M213.333,256c-5.891,0-10.667-4.776-10.667-10.667v-64c0-5.891,4.776-10.667,10.667-10.667
		S224,175.442,224,181.333v64C224,251.224,219.224,256,213.333,256z"/>
	<path style="fill:#FFA000;" d="M256,320c-5.891,0-10.667-4.776-10.667-10.667v-64c0-5.891,4.776-10.667,10.667-10.667
		c5.891,0,10.667,4.776,10.667,10.667v64C266.667,315.224,261.891,320,256,320z"/>
	<path style="fill:#FFA000;" d="M298.667,256c-5.891,0-10.667-4.776-10.667-10.667v-64c0-5.891,4.776-10.667,10.667-10.667
		c5.891,0,10.667,4.776,10.667,10.667v64C309.333,251.224,304.558,256,298.667,256z"/>
	<path style="fill:#FFA000;" d="M256,448c-5.891,0-10.667-4.776-10.667-10.667v-64c0-5.891,4.776-10.667,10.667-10.667
		c5.891,0,10.667,4.776,10.667,10.667v64C266.667,443.224,261.891,448,256,448z"/>
	<path style="fill:#FFA000;" d="M213.333,384c-5.891,0-10.667-4.776-10.667-10.667v-64c0-5.891,4.776-10.667,10.667-10.667
		S224,303.442,224,309.333v64C224,379.224,219.224,384,213.333,384z"/>
	<path style="fill:#FFA000;" d="M298.667,384c-5.891,0-10.667-4.776-10.667-10.667v-64c0-5.891,4.776-10.667,10.667-10.667
		c5.891,0,10.667,4.776,10.667,10.667v64C309.333,379.224,304.558,384,298.667,384z"/>
</g>
<path d="M384,512H128c-29.455,0-53.333-23.878-53.333-53.333V117.333c-0.005-2.831,1.115-5.548,3.115-7.552L184.448,3.115
	C186.452,1.115,189.169-0.005,192,0h192c29.455,0,53.333,23.878,53.333,53.333v405.333C437.333,488.122,413.455,512,384,512z
	 M96,121.728v336.939c0,17.673,14.327,32,32,32h256c17.673,0,32-14.327,32-32V53.333c0-17.673-14.327-32-32-32H196.416L96,121.728z"
	/>
<path d="M341.333,448H170.667c-17.673,0-32-14.327-32-32V202.667c0-17.673,14.327-32,32-32h170.667c17.673,0,32,14.327,32,32V416
	C373.333,433.673,359.006,448,341.333,448z M170.667,192c-5.891,0-10.667,4.776-10.667,10.667V416
	c0,5.891,4.776,10.667,10.667,10.667h170.667c5.891,0,10.667-4.776,10.667-10.667V202.667c0-5.891-4.776-10.667-10.667-10.667
	H170.667z"/>
<path d="M362.667,320H149.333c-5.891,0-10.667-4.776-10.667-10.667c0-5.891,4.776-10.667,10.667-10.667h213.333
	c5.891,0,10.667,4.776,10.667,10.667C373.333,315.224,368.558,320,362.667,320z"/>
<path d="M213.333,256c-5.891,0-10.667-4.776-10.667-10.667v-64c0-5.891,4.776-10.667,10.667-10.667S224,175.442,224,181.333v64
	C224,251.224,219.224,256,213.333,256z"/>
<path d="M256,320c-5.891,0-10.667-4.776-10.667-10.667v-64c0-5.891,4.776-10.667,10.667-10.667c5.891,0,10.667,4.776,10.667,10.667
	v64C266.667,315.224,261.891,320,256,320z"/>
<path d="M298.667,256c-5.891,0-10.667-4.776-10.667-10.667v-64c0-5.891,4.776-10.667,10.667-10.667
	c5.891,0,10.667,4.776,10.667,10.667v64C309.333,251.224,304.558,256,298.667,256z"/>
<path d="M256,448c-5.891,0-10.667-4.776-10.667-10.667v-64c0-5.891,4.776-10.667,10.667-10.667c5.891,0,10.667,4.776,10.667,10.667
	v64C266.667,443.224,261.891,448,256,448z"/>
<path d="M213.333,384c-5.891,0-10.667-4.776-10.667-10.667v-64c0-5.891,4.776-10.667,10.667-10.667S224,303.442,224,309.333v64
	C224,379.224,219.224,384,213.333,384z"/>
<path d="M298.667,384c-5.891,0-10.667-4.776-10.667-10.667v-64c0-5.891,4.776-10.667,10.667-10.667
	c5.891,0,10.667,4.776,10.667,10.667v64C309.333,379.224,304.558,384,298.667,384z"/>
<g>
</g>
<g>
</g>
<g>
</g>
<g>
</g>
<g>
</g>
<g>
</g>
<g>
</g>
<g>
</g>
<g>
</g>
<g>
</g>
<g>
</g>
<g>
</g>
<g>
</g>
<g>
</g>
<g>
</g>
</svg>
